HIERARCHY
ROOT hip
{
	OFFSET 0.000000 0.000000 0.000000 
	CHANNELS 6 Xposition Yposition Zposition Xrotation Zrotation Yrotation
	JOINT abdomen
	{
		OFFSET 0.000000 3.402643 0.000000 
		CHANNELS 3 Xrotation Zrotation Yrotation
		JOINT chest
		{
			OFFSET 0.000000 8.438565 -0.680529 
			CHANNELS 3 Xrotation Zrotation Yrotation
			JOINT neck
			{
				OFFSET 0.000000 10.207942 -0.272212 
				CHANNELS 3 Xrotation Zrotation Yrotation
				JOINT head
				{
					OFFSET 0.000000 3.130431 0.000000 
					CHANNELS 3 Xrotation Zrotation Yrotation
					End Site
					{
						OFFSET 0.000000 3.130435 0.000000 
					}
				}
			}
			JOINT lCollar
			{
				OFFSET 3.470700 6.669187 -0.816635 
				CHANNELS 3 Yrotation Zrotation Xrotation
				JOINT lShldr
				{
					OFFSET 3.198488 0.000000 0.000000 
					CHANNELS 3 Zrotation Yrotation Xrotation
					JOINT lForeArm
					{
						OFFSET 10.139888 0.000000 0.000000 
						CHANNELS 3 Yrotation Zrotation Xrotation
						JOINT lHand
						{
							OFFSET 8.370511 0.000000 0.000000 
							CHANNELS 3 Zrotation Yrotation Xrotation
							End Site
							{
								OFFSET 4.083176 0.000000 0.000000 
							}
						}
					}
				}
			}
			JOINT rCollar
			{
				OFFSET -3.470700 6.669187 -0.816635 
				CHANNELS 3 Yrotation Zrotation Xrotation
				JOINT rShldr
				{
					OFFSET -3.198488 0.000000 0.000000 
					CHANNELS 3 Zrotation Yrotation Xrotation
					JOINT rForeArm
					{
						OFFSET -10.139888 0.000000 0.000000 
						CHANNELS 3 Yrotation Zrotation Xrotation
						JOINT rHand
						{
							OFFSET -8.370511 0.000000 0.000000 
							CHANNELS 3 Zrotation Yrotation Xrotation
							End Site
							{
								OFFSET -4.083176 0.000000 0.000000 
							}
						}
					}
				}
			}
		}
	}
	JOINT lThigh
	{
		OFFSET 5.308129 -1.633274 1.361059 
		CHANNELS 3 Xrotation Zrotation Yrotation
		JOINT lShin
		{
			OFFSET -2.041588 -20.007561 0.000000 
			CHANNELS 3 Xrotation Zrotation Yrotation
			JOINT lFoot
			{
				OFFSET 0.000000 -19.190928 -1.224953 
				CHANNELS 3 Xrotation Yrotation Zrotation
				End Site
				{
					OFFSET 0.000000 -2.449906 4.627600 
				}
			}
		}
	}
	JOINT rThigh
	{
		OFFSET -5.308129 -1.633274 1.361059 
		CHANNELS 3 Xrotation Zrotation Yrotation
		JOINT rShin
		{
			OFFSET 2.041588 -20.007561 0.000000 
			CHANNELS 3 Xrotation Zrotation Yrotation
			JOINT rFoot
			{
				OFFSET 0.000000 -19.190928 -1.224953 
				CHANNELS 3 Xrotation Yrotation Zrotation
				End Site
				{
					OFFSET 0.000000 -2.449906 4.627600 
				}
			}
		}
	}
}
MOTION
Frames: 10
Frame Time: 0.033333
14.800972 51.828861 -52.389210 -15.764957 -1.146603 6.046266 37.923302 1.907362 -7.922117 -20.839844 0.000000 0.000000 -4.094132 18.943363 1.095472 8.586096 -4.084739 0.307924 -4.754608 -0.109225 -0.002657 -69.555153 -3.216282 8.598745 -0.425945 -1.195255 31.872368 5.876546 -13.712554 2.063907 4.754608 0.109225 -0.002676 63.363571 -0.435578 -15.422168 2.589994 0.116838 16.916445 -4.035117 14.355872 26.920973 11.395381 16.201326 14.863894 14.076594 -4.392667 -3.471768 -8.001528 -14.680291 6.237193 23.167446 -13.123945 -22.125814 -3.691070 11.039820 -7.172574 0.917987 17.565128 4.528095 
14.741854 51.831493 -52.437252 -15.608030 -1.025210 6.448445 37.979652 1.997145 -7.947933 -20.839844 0.000000 0.000000 -4.074322 19.004517 0.978716 8.586096 -4.084739 0.307924 -4.754608 -0.109225 -0.002657 -73.982605 -4.317762 11.300545 -0.296483 -0.737821 33.537140 6.138628 -14.004918 2.442940 4.754608 0.109225 -0.002676 67.271149 0.136946 -14.406923 2.581565 0.120767 17.102139 -3.949258 14.541464 27.627380 11.088171 16.245279 14.877356 13.968858 -4.462210 -3.626492 -7.777250 -14.962623 6.314300 23.016178 -13.066501 -21.948908 -3.685217 10.995338 -7.355778 0.902223 17.107796 4.473292 
14.682737 51.840458 -52.485287 -15.490688 -0.997561 6.731494 38.204895 2.244601 -7.888401 -20.839844 0.000000 0.000000 -4.078420 18.914143 1.034188 8.586096 -4.084739 0.307924 -4.754608 -0.109225 -0.002657 -78.250496 -6.091080 14.545060 0.689550 -0.223066 35.613338 6.514019 -14.453018 2.993058 4.754608 0.109225 -0.002676 70.881340 1.007111 -13.161113 2.573610 0.123209 17.375715 -3.232311 15.004378 28.254168 10.794724 16.137436 14.426626 13.822173 -4.140048 -3.825812 -7.553834 -14.643103 6.143107 22.857813 -12.890381 -21.879343 -3.689178 10.821322 -7.581021 0.892732 17.029436 4.434905 
14.627844 51.845219 -52.518009 -15.500235 -0.950462 6.826040 38.526524 2.448890 -7.873486 -20.839844 0.000000 0.000000 -3.953712 18.711319 1.412575 8.586096 -4.084739 0.307924 -4.754608 -0.109225 -0.002657 -81.238510 -6.613126 17.072542 -2.771534 -1.224894 38.309212 7.140374 -15.017457 4.172789 4.754608 0.109225 -0.002676 74.306953 1.999426 -11.699411 2.567400 0.130051 17.971674 -2.763038 15.566869 28.992613 10.750443 16.024641 14.183700 13.647452 -3.915769 -3.916880 -7.208773 -14.430194 6.149183 22.841358 -12.764170 -22.122696 -3.684476 10.671457 -7.788379 0.902102 17.424173 4.520122 
14.567144 51.847858 -52.549664 -15.519394 -0.865686 6.607542 38.757278 2.319687 -7.765800 -20.839844 0.000000 0.000000 -3.725784 18.480541 1.815038 8.586096 -4.084739 0.307924 -4.754608 -0.109225 -0.002657 -82.893456 -7.128412 18.934969 -7.040978 -3.462216 40.503647 7.764706 -15.552835 5.387438 4.754608 0.109225 -0.002676 77.637352 2.981638 -10.180136 2.553082 0.140464 18.743546 -2.490577 16.216606 29.947594 10.903010 16.040485 14.418487 13.456252 -4.138951 -3.778612 -6.752794 -14.701072 6.442323 22.791510 -12.821927 -22.236671 -3.696151 10.595586 -7.737241 0.944863 17.618664 4.629187 
14.502222 51.859463 -52.600876 -15.401932 -0.800271 6.089571 38.833752 2.017840 -7.437611 -20.839844 0.000000 0.000000 -3.504571 18.300276 2.027150 8.586096 -4.084739 0.307924 -4.754608 -0.109225 -0.002657 -83.446999 -8.102607 20.380829 -11.254146 -6.805678 42.351635 8.728386 -16.156509 6.882206 4.754608 0.109225 -0.002676 80.798592 4.072532 -8.467423 2.539104 0.160201 19.515585 -2.402804 16.810076 30.628618 10.923847 16.070686 14.753726 13.376229 -4.499564 -3.447770 -6.289075 -14.870417 6.845891 22.522985 -13.035394 -22.151707 -3.718530 10.678865 -7.451478 1.060755 17.588121 4.618476 
14.446802 51.891659 -52.684265 -15.147794 -0.744682 5.670324 38.807541 1.734349 -7.212389 -20.839844 0.000000 0.000000 -3.337569 18.317957 2.104862 8.586096 -4.084739 0.307924 -4.754608 -0.109225 -0.002657 -83.203407 -9.683076 21.690849 -14.865641 -10.661113 44.219074 9.980228 -16.867304 8.785968 4.754608 0.109225 -0.002676 83.644539 5.129089 -6.606561 2.528345 0.181596 20.736973 -2.704105 17.613802 31.487261 10.575181 15.849149 14.468639 13.380529 -4.481164 -3.164372 -5.828460 -14.263741 6.889565 22.093811 -13.260054 -22.268637 -3.686139 10.809744 -7.288359 1.179860 17.764791 4.582193 
14.418825 51.939175 -52.781921 -14.796046 -0.698696 5.633752 38.630604 1.517613 -7.298504 -20.839844 0.000000 0.000000 -3.180698 18.619486 2.106387 8.586096 -4.084739 0.307924 -4.754608 -0.109225 -0.002657 -82.698997 -11.320854 23.134726 -18.146980 -13.618065 46.266930 11.387528 -17.799900 10.656445 4.754608 0.109225 -0.002676 86.179565 6.127069 -4.974791 2.493747 0.204565 22.320013 -2.708997 18.700647 33.272976 9.778615 15.423196 13.383928 13.496359 -4.012378 -3.010111 -5.483286 -12.671133 6.330688 21.610109 -13.320465 -22.504972 -3.646584 10.829916 -7.440022 1.309903 18.092279 4.524915 
14.428854 51.974003 -52.898041 -14.561687 -0.708897 5.848191 38.535980 1.489035 -7.461296 -20.839844 0.000000 0.000000 -3.086427 18.948050 2.080873 8.586096 -4.084739 0.307924 -4.754608 -0.109225 -0.002657 -82.380936 -12.831236 23.957975 -20.766184 -15.415551 48.299797 12.956137 -19.141216 13.691184 4.754608 0.109225 -0.002676 88.306931 7.243756 -3.535978 2.460396 0.216837 23.834593 -2.331430 19.691578 35.428467 8.982344 15.008516 12.296654 13.758151 -3.543595 -2.825425 -5.288163 -11.034479 6.304654 21.241488 -13.288422 -22.504293 -3.647104 10.731706 -7.600901 1.407777 18.065514 4.643404 
14.496416 51.969784 -53.013107 -14.639560 -0.623608 6.344525 38.749481 1.672465 -7.654182 -20.839844 0.000000 0.000000 -3.060510 19.112419 1.933458 8.586096 -4.084739 0.307924 -4.754608 -0.109225 -0.002657 -82.157349 -14.530266 24.581556 -22.488001 -16.703423 50.165104 14.797699 -20.299400 16.729494 4.754608 0.109225 -0.002676 89.994942 8.396519 -2.076075 2.419729 0.223446 25.319897 -1.963783 20.396193 37.288177 8.513620 14.715680 12.002422 14.205908 -3.359681 -2.467106 -5.340884 -10.538472 7.328978 21.337347 -13.340156 -22.583252 -3.616291 10.779429 -7.774694 1.390007 17.810503 5.215932 
